<mxfile host="app.diagrams.net" agent="Mozilla/5.0 (Macintosh; Intel Mac OS X 10_15_7) AppleWebKit/537.36 (KHTML, like Gecko) Chrome/134.0.0.0 Safari/537.36" version="26.2.12">
  <diagram name="Page-1" id="VwNy3HDY6yALP9Ne_jM8">
    <mxGraphModel dx="1203" dy="1227" grid="0" gridSize="10" guides="1" tooltips="1" connect="1" arrows="1" fold="1" page="0" pageScale="1" pageWidth="827" pageHeight="1169" math="0" shadow="0">
      <root>
        <mxCell id="0" />
        <mxCell id="1" parent="0" />
        <mxCell id="bP8o2C8aqSpeo2GYNB18-254" value="" style="rounded=0;whiteSpace=wrap;html=1;fillColor=none;dashed=1;dashPattern=8 8;movable=0;resizable=0;rotatable=0;deletable=0;editable=0;locked=1;connectable=0;" parent="1" vertex="1">
          <mxGeometry x="340" y="-10" width="900" height="1190" as="geometry" />
        </mxCell>
        <mxCell id="bP8o2C8aqSpeo2GYNB18-12" style="edgeStyle=orthogonalEdgeStyle;rounded=0;orthogonalLoop=1;jettySize=auto;html=1;exitX=1;exitY=0.5;exitDx=0;exitDy=0;entryX=0;entryY=0.5;entryDx=0;entryDy=0;endArrow=blockThin;endFill=1;" parent="1" source="bP8o2C8aqSpeo2GYNB18-3" target="bP8o2C8aqSpeo2GYNB18-4" edge="1">
          <mxGeometry relative="1" as="geometry" />
        </mxCell>
        <mxCell id="bP8o2C8aqSpeo2GYNB18-3" value="L4 Balancing" style="rounded=0;whiteSpace=wrap;html=1;fillColor=#d5e8d4;strokeColor=#82b366;fontSize=11;" parent="1" vertex="1">
          <mxGeometry x="180" y="480" width="80" height="40" as="geometry" />
        </mxCell>
        <mxCell id="bP8o2C8aqSpeo2GYNB18-13" style="edgeStyle=orthogonalEdgeStyle;rounded=0;orthogonalLoop=1;jettySize=auto;html=1;exitX=1;exitY=0.5;exitDx=0;exitDy=0;entryX=0;entryY=0.5;entryDx=0;entryDy=0;endArrow=blockThin;endFill=1;" parent="1" source="bP8o2C8aqSpeo2GYNB18-4" target="bP8o2C8aqSpeo2GYNB18-8" edge="1">
          <mxGeometry relative="1" as="geometry" />
        </mxCell>
        <mxCell id="bP8o2C8aqSpeo2GYNB18-8" value="API Gateway" style="rounded=0;whiteSpace=wrap;html=1;fillColor=#dae8fc;strokeColor=#6c8ebf;fontSize=11;" parent="1" vertex="1">
          <mxGeometry x="420" y="480" width="80" height="40" as="geometry" />
        </mxCell>
        <mxCell id="bP8o2C8aqSpeo2GYNB18-10" value="" style="edgeStyle=orthogonalEdgeStyle;rounded=0;orthogonalLoop=1;jettySize=auto;html=1;endArrow=blockThin;endFill=1;" parent="1" source="bP8o2C8aqSpeo2GYNB18-9" target="bP8o2C8aqSpeo2GYNB18-3" edge="1">
          <mxGeometry relative="1" as="geometry" />
        </mxCell>
        <mxCell id="bP8o2C8aqSpeo2GYNB18-9" value="Client" style="shape=umlActor;verticalLabelPosition=bottom;verticalAlign=top;html=1;outlineConnect=0;fontSize=11;" parent="1" vertex="1">
          <mxGeometry x="100" y="470" width="30" height="60" as="geometry" />
        </mxCell>
        <mxCell id="bP8o2C8aqSpeo2GYNB18-19" value="Прокси" style="rounded=0;whiteSpace=wrap;html=1;fontSize=11;fillColor=#d5e8d4;strokeColor=#82b366;" parent="1" vertex="1">
          <mxGeometry x="100" y="80" width="80" height="40" as="geometry" />
        </mxCell>
        <mxCell id="bP8o2C8aqSpeo2GYNB18-20" value="Backend" style="rounded=0;whiteSpace=wrap;html=1;fontSize=11;fillColor=#dae8fc;strokeColor=#6c8ebf;" parent="1" vertex="1">
          <mxGeometry x="100" y="140" width="80" height="40" as="geometry" />
        </mxCell>
        <mxCell id="bP8o2C8aqSpeo2GYNB18-24" value="БД" style="shape=cylinder3;whiteSpace=wrap;html=1;boundedLbl=1;backgroundOutline=1;size=15;fillColor=#ffe6cc;strokeColor=#d79b00;fontSize=11;" parent="1" vertex="1">
          <mxGeometry x="100" y="200" width="70" height="60" as="geometry" />
        </mxCell>
        <mxCell id="bP8o2C8aqSpeo2GYNB18-26" value="Брокер сообщений" style="strokeWidth=1;html=1;shape=mxgraph.flowchart.direct_data;whiteSpace=wrap;fillColor=#e1d5e7;strokeColor=#9673a6;rotation=0;fontSize=11;" parent="1" vertex="1">
          <mxGeometry x="100" y="280" width="80" height="40" as="geometry" />
        </mxCell>
        <mxCell id="bP8o2C8aqSpeo2GYNB18-27" value="" style="endArrow=blockThin;html=1;rounded=0;strokeColor=#FF0000;endFill=1;" parent="1" edge="1">
          <mxGeometry width="50" height="50" relative="1" as="geometry">
            <mxPoint x="100" y="29" as="sourcePoint" />
            <mxPoint x="130" y="29" as="targetPoint" />
          </mxGeometry>
        </mxCell>
        <mxCell id="bP8o2C8aqSpeo2GYNB18-28" value="" style="endArrow=blockThin;html=1;rounded=0;strokeColor=#007FFF;endFill=1;" parent="1" edge="1">
          <mxGeometry width="50" height="50" relative="1" as="geometry">
            <mxPoint x="100" y="50" as="sourcePoint" />
            <mxPoint x="130" y="50" as="targetPoint" />
          </mxGeometry>
        </mxCell>
        <mxCell id="bP8o2C8aqSpeo2GYNB18-29" value="- синхронный запрос (чтение)" style="text;html=1;align=left;verticalAlign=middle;whiteSpace=wrap;rounded=0;" parent="1" vertex="1">
          <mxGeometry x="140" y="20" width="180" height="20" as="geometry" />
        </mxCell>
        <mxCell id="bP8o2C8aqSpeo2GYNB18-30" value="- асинхронный запрос" style="text;html=1;align=left;verticalAlign=middle;whiteSpace=wrap;rounded=0;" parent="1" vertex="1">
          <mxGeometry x="140" y="40" width="130" height="20" as="geometry" />
        </mxCell>
        <mxCell id="bP8o2C8aqSpeo2GYNB18-31" value="" style="rounded=0;whiteSpace=wrap;html=1;fillColor=#f5f5f5;strokeColor=#ADADAD;fontColor=#333333;" parent="1" vertex="1">
          <mxGeometry x="723" y="900" width="230" height="240" as="geometry" />
        </mxCell>
        <mxCell id="bP8o2C8aqSpeo2GYNB18-32" value="Recommendations" style="text;html=1;align=center;verticalAlign=middle;whiteSpace=wrap;rounded=0;" parent="1" vertex="1">
          <mxGeometry x="723" y="900" width="120" height="30" as="geometry" />
        </mxCell>
        <mxCell id="bP8o2C8aqSpeo2GYNB18-34" value="" style="rounded=0;whiteSpace=wrap;html=1;fillColor=#f5f5f5;strokeColor=#ADADAD;fontColor=#333333;" parent="1" vertex="1">
          <mxGeometry x="600" y="400" width="340" height="200" as="geometry" />
        </mxCell>
        <mxCell id="bP8o2C8aqSpeo2GYNB18-35" value="Search" style="text;html=1;align=center;verticalAlign=middle;whiteSpace=wrap;rounded=0;" parent="1" vertex="1">
          <mxGeometry x="600" y="400" width="60" height="30" as="geometry" />
        </mxCell>
        <mxCell id="bP8o2C8aqSpeo2GYNB18-36" value="" style="rounded=0;whiteSpace=wrap;html=1;fillColor=#f5f5f5;strokeColor=#ADADAD;fontColor=#333333;" parent="1" vertex="1">
          <mxGeometry x="600" width="240" height="110" as="geometry" />
        </mxCell>
        <mxCell id="bP8o2C8aqSpeo2GYNB18-37" value="Auth" style="text;html=1;align=center;verticalAlign=middle;whiteSpace=wrap;rounded=0;" parent="1" vertex="1">
          <mxGeometry x="600" width="60" height="30" as="geometry" />
        </mxCell>
        <mxCell id="bP8o2C8aqSpeo2GYNB18-40" value="" style="rounded=0;whiteSpace=wrap;html=1;fillColor=#f5f5f5;strokeColor=#ADADAD;fontColor=#333333;" parent="1" vertex="1">
          <mxGeometry x="370" y="909" width="330" height="260" as="geometry" />
        </mxCell>
        <mxCell id="bP8o2C8aqSpeo2GYNB18-41" value="Storage" style="text;html=1;align=center;verticalAlign=middle;whiteSpace=wrap;rounded=0;" parent="1" vertex="1">
          <mxGeometry x="370" y="909" width="60" height="30" as="geometry" />
        </mxCell>
        <mxCell id="bP8o2C8aqSpeo2GYNB18-42" value="" style="rounded=0;whiteSpace=wrap;html=1;fillColor=#f5f5f5;strokeColor=#ADADAD;fontColor=#333333;" parent="1" vertex="1">
          <mxGeometry x="600" y="620" width="350" height="260" as="geometry" />
        </mxCell>
        <mxCell id="bP8o2C8aqSpeo2GYNB18-43" value="Card" style="text;html=1;align=center;verticalAlign=middle;whiteSpace=wrap;rounded=0;" parent="1" vertex="1">
          <mxGeometry x="600" y="620" width="60" height="30" as="geometry" />
        </mxCell>
        <mxCell id="bP8o2C8aqSpeo2GYNB18-44" value="" style="endArrow=blockThin;html=1;rounded=0;strokeColor=#FF0000;endFill=1;dashed=1;" parent="1" edge="1">
          <mxGeometry width="50" height="50" relative="1" as="geometry">
            <mxPoint x="100" y="9" as="sourcePoint" />
            <mxPoint x="130" y="9" as="targetPoint" />
          </mxGeometry>
        </mxCell>
        <mxCell id="bP8o2C8aqSpeo2GYNB18-45" value="- синхронный запрос (запись)" style="text;html=1;align=left;verticalAlign=middle;whiteSpace=wrap;rounded=0;" parent="1" vertex="1">
          <mxGeometry x="140" width="180" height="20" as="geometry" />
        </mxCell>
        <mxCell id="bP8o2C8aqSpeo2GYNB18-46" value="Auth Service" style="rounded=0;whiteSpace=wrap;html=1;fillColor=#dae8fc;strokeColor=#6c8ebf;fontSize=11;" parent="1" vertex="1">
          <mxGeometry x="620" y="40" width="80" height="40" as="geometry" />
        </mxCell>
        <mxCell id="bP8o2C8aqSpeo2GYNB18-47" value="Session&lt;div&gt;Tarantool&lt;/div&gt;" style="shape=cylinder3;whiteSpace=wrap;html=1;boundedLbl=1;backgroundOutline=1;size=15;fillColor=#ffe6cc;strokeColor=#d79b00;fontSize=11;" parent="1" vertex="1">
          <mxGeometry x="757" y="30" width="70" height="60" as="geometry" />
        </mxCell>
        <mxCell id="bP8o2C8aqSpeo2GYNB18-49" value="" style="endArrow=blockThin;html=1;rounded=0;strokeColor=#FF0000;endFill=1;dashed=1;exitX=1;exitY=0.25;exitDx=0;exitDy=0;entryX=0;entryY=0;entryDx=0;entryDy=22.5;entryPerimeter=0;" parent="1" source="bP8o2C8aqSpeo2GYNB18-46" target="bP8o2C8aqSpeo2GYNB18-47" edge="1">
          <mxGeometry width="50" height="50" relative="1" as="geometry">
            <mxPoint x="730" y="100.5" as="sourcePoint" />
            <mxPoint x="770" y="99.5" as="targetPoint" />
          </mxGeometry>
        </mxCell>
        <mxCell id="bP8o2C8aqSpeo2GYNB18-51" value="" style="endArrow=blockThin;html=1;rounded=0;strokeColor=#FF0000;endFill=1;entryX=0;entryY=1;entryDx=0;entryDy=-15;entryPerimeter=0;exitX=1;exitY=0.75;exitDx=0;exitDy=0;" parent="1" source="bP8o2C8aqSpeo2GYNB18-46" target="bP8o2C8aqSpeo2GYNB18-47" edge="1">
          <mxGeometry width="50" height="50" relative="1" as="geometry">
            <mxPoint x="700" y="68" as="sourcePoint" />
            <mxPoint x="770" y="70" as="targetPoint" />
          </mxGeometry>
        </mxCell>
        <mxCell id="bP8o2C8aqSpeo2GYNB18-55" value="Events&lt;div&gt;Kafka&lt;/div&gt;" style="strokeWidth=1;html=1;shape=mxgraph.flowchart.direct_data;whiteSpace=wrap;fillColor=#e1d5e7;strokeColor=#9673a6;rotation=0;fontSize=11;" parent="1" vertex="1">
          <mxGeometry x="1120" y="480" width="80" height="40" as="geometry" />
        </mxCell>
        <mxCell id="bP8o2C8aqSpeo2GYNB18-60" value="&lt;div&gt;Search Index&lt;/div&gt;Elastic" style="shape=cylinder3;whiteSpace=wrap;html=1;boundedLbl=1;backgroundOutline=1;size=15;fillColor=#ffe6cc;strokeColor=#d79b00;fontSize=10;" parent="1" vertex="1">
          <mxGeometry x="740" y="425" width="70" height="60" as="geometry" />
        </mxCell>
        <mxCell id="bP8o2C8aqSpeo2GYNB18-105" style="rounded=0;orthogonalLoop=1;jettySize=auto;html=1;exitX=1;exitY=1;exitDx=0;exitDy=0;entryX=0;entryY=0;entryDx=0;entryDy=0;endArrow=blockThin;endFill=1;strokeColor=#FF0000;" parent="1" source="bP8o2C8aqSpeo2GYNB18-61" target="bP8o2C8aqSpeo2GYNB18-104" edge="1">
          <mxGeometry relative="1" as="geometry" />
        </mxCell>
        <mxCell id="bP8o2C8aqSpeo2GYNB18-61" value="Search Service" style="rounded=0;whiteSpace=wrap;html=1;fillColor=#dae8fc;strokeColor=#6c8ebf;fontSize=11;glass=0;shadow=0;" parent="1" vertex="1">
          <mxGeometry x="620" y="435" width="80" height="40" as="geometry" />
        </mxCell>
        <mxCell id="bP8o2C8aqSpeo2GYNB18-77" value="Storage Service" style="rounded=0;whiteSpace=wrap;html=1;fontSize=11;fillColor=#dae8fc;strokeColor=#6c8ebf;" parent="1" vertex="1">
          <mxGeometry x="385" y="949" width="80" height="40" as="geometry" />
        </mxCell>
        <mxCell id="bP8o2C8aqSpeo2GYNB18-79" value="&lt;div&gt;Storage&lt;/div&gt;&lt;div&gt;CEPH&lt;/div&gt;" style="shape=cylinder3;whiteSpace=wrap;html=1;boundedLbl=1;backgroundOutline=1;size=15;fillColor=#ffe6cc;strokeColor=#d79b00;fontSize=10;" parent="1" vertex="1">
          <mxGeometry x="390" y="1089" width="70" height="60" as="geometry" />
        </mxCell>
        <mxCell id="bP8o2C8aqSpeo2GYNB18-80" value="Worker" style="rounded=0;whiteSpace=wrap;html=1;fontSize=11;fillColor=#dae8fc;strokeColor=#6c8ebf;" parent="1" vertex="1">
          <mxGeometry x="605" y="1099" width="80" height="40" as="geometry" />
        </mxCell>
        <mxCell id="bP8o2C8aqSpeo2GYNB18-81" value="&lt;div&gt;Raw&amp;nbsp;&lt;span style=&quot;background-color: transparent; color: light-dark(rgb(0, 0, 0), rgb(255, 255, 255));&quot;&gt;Storage&lt;/span&gt;&lt;/div&gt;&lt;div&gt;CEPH&lt;/div&gt;" style="shape=cylinder3;whiteSpace=wrap;html=1;boundedLbl=1;backgroundOutline=1;size=15;fillColor=#ffe6cc;strokeColor=#d79b00;fontSize=10;" parent="1" vertex="1">
          <mxGeometry x="610" y="939" width="70" height="60" as="geometry" />
        </mxCell>
        <mxCell id="bP8o2C8aqSpeo2GYNB18-82" value="Queue&lt;div&gt;Kafka&lt;/div&gt;" style="strokeWidth=1;html=1;shape=mxgraph.flowchart.direct_data;whiteSpace=wrap;fillColor=#e1d5e7;strokeColor=#9673a6;rotation=0;fontSize=11;" parent="1" vertex="1">
          <mxGeometry x="490" y="1019" width="80" height="40" as="geometry" />
        </mxCell>
        <mxCell id="bP8o2C8aqSpeo2GYNB18-83" value="" style="endArrow=blockThin;html=1;rounded=0;strokeColor=#FF0000;endFill=1;dashed=1;exitX=1;exitY=0.5;exitDx=0;exitDy=0;entryX=0;entryY=0.5;entryDx=0;entryDy=0;entryPerimeter=0;" parent="1" source="bP8o2C8aqSpeo2GYNB18-77" target="bP8o2C8aqSpeo2GYNB18-81" edge="1">
          <mxGeometry width="50" height="50" relative="1" as="geometry">
            <mxPoint x="460" y="774" as="sourcePoint" />
            <mxPoint x="465" y="808" as="targetPoint" />
          </mxGeometry>
        </mxCell>
        <mxCell id="bP8o2C8aqSpeo2GYNB18-84" value="" style="endArrow=blockThin;html=1;rounded=0;strokeColor=#FF0000;endFill=1;entryX=0.5;entryY=0;entryDx=0;entryDy=0;entryPerimeter=0;exitX=0.5;exitY=1;exitDx=0;exitDy=0;" parent="1" source="bP8o2C8aqSpeo2GYNB18-77" target="bP8o2C8aqSpeo2GYNB18-79" edge="1">
          <mxGeometry width="50" height="50" relative="1" as="geometry">
            <mxPoint x="420" y="774" as="sourcePoint" />
            <mxPoint x="415" y="808" as="targetPoint" />
          </mxGeometry>
        </mxCell>
        <mxCell id="bP8o2C8aqSpeo2GYNB18-89" value="" style="endArrow=blockThin;html=1;rounded=0;strokeColor=#FF0000;endFill=1;dashed=1;exitX=1;exitY=1;exitDx=0;exitDy=0;entryX=0.08;entryY=0;entryDx=0;entryDy=0;entryPerimeter=0;" parent="1" source="bP8o2C8aqSpeo2GYNB18-77" target="bP8o2C8aqSpeo2GYNB18-82" edge="1">
          <mxGeometry width="50" height="50" relative="1" as="geometry">
            <mxPoint x="475" y="979" as="sourcePoint" />
            <mxPoint x="532" y="979" as="targetPoint" />
          </mxGeometry>
        </mxCell>
        <mxCell id="bP8o2C8aqSpeo2GYNB18-92" style="edgeStyle=orthogonalEdgeStyle;rounded=0;orthogonalLoop=1;jettySize=auto;html=1;exitX=0.5;exitY=0;exitDx=0;exitDy=0;entryX=0.5;entryY=1;entryDx=0;entryDy=0;entryPerimeter=0;strokeColor=#007FFF;endArrow=blockThin;endFill=1;" parent="1" source="bP8o2C8aqSpeo2GYNB18-80" target="bP8o2C8aqSpeo2GYNB18-81" edge="1">
          <mxGeometry relative="1" as="geometry" />
        </mxCell>
        <mxCell id="bP8o2C8aqSpeo2GYNB18-93" style="rounded=0;orthogonalLoop=1;jettySize=auto;html=1;exitX=0;exitY=0;exitDx=0;exitDy=0;entryX=0.91;entryY=1;entryDx=0;entryDy=0;entryPerimeter=0;strokeColor=#007FFF;endArrow=blockThin;endFill=1;" parent="1" source="bP8o2C8aqSpeo2GYNB18-80" target="bP8o2C8aqSpeo2GYNB18-82" edge="1">
          <mxGeometry relative="1" as="geometry" />
        </mxCell>
        <mxCell id="bP8o2C8aqSpeo2GYNB18-94" style="edgeStyle=orthogonalEdgeStyle;rounded=0;orthogonalLoop=1;jettySize=auto;html=1;exitX=0;exitY=0.5;exitDx=0;exitDy=0;entryX=1;entryY=0.5;entryDx=0;entryDy=0;entryPerimeter=0;strokeColor=#FF0000;endArrow=blockThin;endFill=1;dashed=1;" parent="1" source="bP8o2C8aqSpeo2GYNB18-80" target="bP8o2C8aqSpeo2GYNB18-79" edge="1">
          <mxGeometry relative="1" as="geometry" />
        </mxCell>
        <mxCell id="bP8o2C8aqSpeo2GYNB18-95" value="&lt;div&gt;Search Cache&lt;/div&gt;&lt;div&gt;Tarantool&lt;/div&gt;" style="shape=cylinder3;whiteSpace=wrap;html=1;boundedLbl=1;backgroundOutline=1;size=15;fillColor=#ffe6cc;strokeColor=#d79b00;fontSize=10;" parent="1" vertex="1">
          <mxGeometry x="625" y="515" width="70" height="60" as="geometry" />
        </mxCell>
        <mxCell id="bP8o2C8aqSpeo2GYNB18-102" style="edgeStyle=orthogonalEdgeStyle;rounded=0;orthogonalLoop=1;jettySize=auto;html=1;exitX=0.5;exitY=1;exitDx=0;exitDy=0;entryX=0.5;entryY=0;entryDx=0;entryDy=0;strokeColor=#007FFF;endArrow=blockThin;endFill=1;flowAnimation=0;" parent="1" source="bP8o2C8aqSpeo2GYNB18-96" target="bP8o2C8aqSpeo2GYNB18-101" edge="1">
          <mxGeometry relative="1" as="geometry">
            <Array as="points">
              <mxPoint x="890" y="610" />
              <mxPoint x="655" y="610" />
            </Array>
          </mxGeometry>
        </mxCell>
        <mxCell id="bP8o2C8aqSpeo2GYNB18-96" value="Search&amp;nbsp;&lt;span style=&quot;background-color: transparent; color: light-dark(rgb(0, 0, 0), rgb(255, 255, 255));&quot;&gt;Index Updater&lt;/span&gt;" style="rounded=0;whiteSpace=wrap;html=1;fillColor=#dae8fc;strokeColor=#6c8ebf;fontSize=11;" parent="1" vertex="1">
          <mxGeometry x="850" y="435" width="80" height="40" as="geometry" />
        </mxCell>
        <mxCell id="bP8o2C8aqSpeo2GYNB18-98" value="" style="endArrow=blockThin;html=1;rounded=0;strokeColor=#FF0000;endFill=1;exitX=1;exitY=0.5;exitDx=0;exitDy=0;entryX=0;entryY=0.5;entryDx=0;entryDy=0;entryPerimeter=0;" parent="1" source="bP8o2C8aqSpeo2GYNB18-61" target="bP8o2C8aqSpeo2GYNB18-60" edge="1">
          <mxGeometry width="50" height="50" relative="1" as="geometry">
            <mxPoint x="710" y="260" as="sourcePoint" />
            <mxPoint x="750" y="259" as="targetPoint" />
          </mxGeometry>
        </mxCell>
        <mxCell id="bP8o2C8aqSpeo2GYNB18-99" value="" style="endArrow=blockThin;html=1;rounded=0;strokeColor=#FF0000;endFill=1;dashed=1;entryX=1;entryY=0.5;entryDx=0;entryDy=0;exitX=0;exitY=0.5;exitDx=0;exitDy=0;entryPerimeter=0;flowAnimation=0;shadow=0;" parent="1" source="bP8o2C8aqSpeo2GYNB18-96" target="bP8o2C8aqSpeo2GYNB18-60" edge="1">
          <mxGeometry width="50" height="50" relative="1" as="geometry">
            <mxPoint x="810" y="269" as="sourcePoint" />
            <mxPoint x="810" y="300" as="targetPoint" />
          </mxGeometry>
        </mxCell>
        <mxCell id="bP8o2C8aqSpeo2GYNB18-100" value="" style="endArrow=blockThin;html=1;rounded=0;strokeColor=#FF0000;endFill=1;exitX=0.5;exitY=1;exitDx=0;exitDy=0;entryX=0.5;entryY=0;entryDx=0;entryDy=0;entryPerimeter=0;" parent="1" source="bP8o2C8aqSpeo2GYNB18-61" target="bP8o2C8aqSpeo2GYNB18-95" edge="1">
          <mxGeometry width="50" height="50" relative="1" as="geometry">
            <mxPoint x="710" y="260" as="sourcePoint" />
            <mxPoint x="750" y="259" as="targetPoint" />
          </mxGeometry>
        </mxCell>
        <mxCell id="bP8o2C8aqSpeo2GYNB18-238" style="edgeStyle=orthogonalEdgeStyle;rounded=0;orthogonalLoop=1;jettySize=auto;html=1;exitX=0.874;exitY=1.01;exitDx=0;exitDy=0;entryX=0.5;entryY=0;entryDx=0;entryDy=0;endArrow=blockThin;endFill=1;strokeColor=#FF0000;exitPerimeter=0;" parent="1" source="bP8o2C8aqSpeo2GYNB18-101" target="bP8o2C8aqSpeo2GYNB18-229" edge="1">
          <mxGeometry relative="1" as="geometry">
            <Array as="points">
              <mxPoint x="685" y="710" />
              <mxPoint x="770" y="710" />
            </Array>
          </mxGeometry>
        </mxCell>
        <mxCell id="bP8o2C8aqSpeo2GYNB18-252" style="edgeStyle=orthogonalEdgeStyle;rounded=0;orthogonalLoop=1;jettySize=auto;html=1;exitX=1;exitY=0.75;exitDx=0;exitDy=0;entryX=0;entryY=0.75;entryDx=0;entryDy=0;endArrow=blockThin;endFill=1;strokeColor=#FF0000;" parent="1" source="bP8o2C8aqSpeo2GYNB18-101" target="bP8o2C8aqSpeo2GYNB18-134" edge="1">
          <mxGeometry relative="1" as="geometry" />
        </mxCell>
        <mxCell id="bP8o2C8aqSpeo2GYNB18-253" style="edgeStyle=orthogonalEdgeStyle;rounded=0;orthogonalLoop=1;jettySize=auto;html=1;exitX=1;exitY=0.25;exitDx=0;exitDy=0;entryX=0;entryY=0.25;entryDx=0;entryDy=0;endArrow=blockThin;endFill=1;strokeColor=#FF0000;dashed=1;" parent="1" source="bP8o2C8aqSpeo2GYNB18-101" target="bP8o2C8aqSpeo2GYNB18-134" edge="1">
          <mxGeometry relative="1" as="geometry" />
        </mxCell>
        <mxCell id="-x_vAjzOWQw0wufuWybN-1" style="edgeStyle=orthogonalEdgeStyle;rounded=0;orthogonalLoop=1;jettySize=auto;html=1;entryX=0.5;entryY=0;entryDx=0;entryDy=0;strokeColor=#FF0000;endArrow=blockThin;endFill=1;" edge="1" parent="1" target="bP8o2C8aqSpeo2GYNB18-154">
          <mxGeometry relative="1" as="geometry">
            <mxPoint x="685" y="710" as="sourcePoint" />
            <Array as="points">
              <mxPoint x="685" y="710" />
              <mxPoint x="720" y="710" />
              <mxPoint x="720" y="790" />
              <mxPoint x="890" y="790" />
            </Array>
          </mxGeometry>
        </mxCell>
        <mxCell id="bP8o2C8aqSpeo2GYNB18-101" value="Card Service" style="rounded=0;whiteSpace=wrap;html=1;fillColor=#dae8fc;strokeColor=#6c8ebf;fontSize=11;" parent="1" vertex="1">
          <mxGeometry x="615" y="650" width="80" height="40" as="geometry" />
        </mxCell>
        <mxCell id="bP8o2C8aqSpeo2GYNB18-104" value="Uber H3 Index" style="rounded=0;whiteSpace=wrap;html=1;fillColor=#dae8fc;strokeColor=#6c8ebf;fontSize=11;" parent="1" vertex="1">
          <mxGeometry x="735" y="525" width="80" height="40" as="geometry" />
        </mxCell>
        <mxCell id="bP8o2C8aqSpeo2GYNB18-106" value="&lt;div&gt;Card&lt;/div&gt;&lt;div&gt;MongoDB&lt;/div&gt;" style="shape=cylinder3;whiteSpace=wrap;html=1;boundedLbl=1;backgroundOutline=1;size=15;fillColor=#ffe6cc;strokeColor=#d79b00;fontSize=10;" parent="1" vertex="1">
          <mxGeometry x="619.5" y="800" width="70" height="60" as="geometry" />
        </mxCell>
        <mxCell id="bP8o2C8aqSpeo2GYNB18-108" value="&lt;div&gt;Card Cache&lt;/div&gt;&lt;div&gt;Tarantool&lt;/div&gt;" style="shape=cylinder3;whiteSpace=wrap;html=1;boundedLbl=1;backgroundOutline=1;size=15;fillColor=#ffe6cc;strokeColor=#d79b00;fontSize=10;" parent="1" vertex="1">
          <mxGeometry x="619.5" y="720" width="70" height="60" as="geometry" />
        </mxCell>
        <mxCell id="bP8o2C8aqSpeo2GYNB18-115" value="" style="rounded=0;whiteSpace=wrap;html=1;fillColor=#f5f5f5;strokeColor=#ADADAD;fontColor=#333333;" parent="1" vertex="1">
          <mxGeometry x="970" y="640" width="230" height="180" as="geometry" />
        </mxCell>
        <mxCell id="bP8o2C8aqSpeo2GYNB18-116" value="Moderation" style="text;html=1;align=center;verticalAlign=middle;whiteSpace=wrap;rounded=0;" parent="1" vertex="1">
          <mxGeometry x="970" y="640" width="70" height="30" as="geometry" />
        </mxCell>
        <mxCell id="bP8o2C8aqSpeo2GYNB18-117" value="Moderation Service" style="rounded=0;whiteSpace=wrap;html=1;fillColor=#dae8fc;strokeColor=#6c8ebf;fontSize=10;" parent="1" vertex="1">
          <mxGeometry x="990" y="680" width="80" height="40" as="geometry" />
        </mxCell>
        <mxCell id="bP8o2C8aqSpeo2GYNB18-124" value="Queue&lt;div&gt;Kafka&lt;/div&gt;" style="strokeWidth=1;html=1;shape=mxgraph.flowchart.direct_data;whiteSpace=wrap;fillColor=#e1d5e7;strokeColor=#9673a6;rotation=0;fontSize=11;" parent="1" vertex="1">
          <mxGeometry x="1100" y="680" width="80" height="40" as="geometry" />
        </mxCell>
        <mxCell id="bP8o2C8aqSpeo2GYNB18-125" style="edgeStyle=orthogonalEdgeStyle;rounded=0;orthogonalLoop=1;jettySize=auto;html=1;exitX=1;exitY=0.25;exitDx=0;exitDy=0;endArrow=blockThin;endFill=1;strokeColor=#FF0000;dashed=1;entryX=0.014;entryY=0.229;entryDx=0;entryDy=0;entryPerimeter=0;" parent="1" source="bP8o2C8aqSpeo2GYNB18-117" target="bP8o2C8aqSpeo2GYNB18-124" edge="1">
          <mxGeometry relative="1" as="geometry">
            <mxPoint x="1100" y="691" as="targetPoint" />
            <Array as="points" />
          </mxGeometry>
        </mxCell>
        <mxCell id="bP8o2C8aqSpeo2GYNB18-126" value="Worker" style="rounded=0;whiteSpace=wrap;html=1;fillColor=#dae8fc;strokeColor=#6c8ebf;fontSize=10;" parent="1" vertex="1">
          <mxGeometry x="1100" y="760" width="80" height="40" as="geometry" />
        </mxCell>
        <mxCell id="bP8o2C8aqSpeo2GYNB18-127" style="edgeStyle=orthogonalEdgeStyle;rounded=0;orthogonalLoop=1;jettySize=auto;html=1;exitX=0.5;exitY=0;exitDx=0;exitDy=0;entryX=0.5;entryY=1;entryDx=0;entryDy=0;entryPerimeter=0;strokeColor=#007FFF;endArrow=blockThin;endFill=1;" parent="1" edge="1">
          <mxGeometry relative="1" as="geometry">
            <mxPoint x="1120" y="760" as="sourcePoint" />
            <mxPoint x="1120" y="720" as="targetPoint" />
          </mxGeometry>
        </mxCell>
        <mxCell id="bP8o2C8aqSpeo2GYNB18-129" value="ML Model" style="rounded=0;whiteSpace=wrap;html=1;fillColor=#dae8fc;strokeColor=#6c8ebf;fontSize=10;" parent="1" vertex="1">
          <mxGeometry x="990" y="760" width="80" height="40" as="geometry" />
        </mxCell>
        <mxCell id="bP8o2C8aqSpeo2GYNB18-131" style="edgeStyle=orthogonalEdgeStyle;rounded=0;orthogonalLoop=1;jettySize=auto;html=1;exitX=1;exitY=0.75;exitDx=0;exitDy=0;endArrow=blockThin;endFill=1;strokeColor=#FF0000;" parent="1" source="bP8o2C8aqSpeo2GYNB18-117" edge="1">
          <mxGeometry relative="1" as="geometry">
            <mxPoint x="1070" y="739.5" as="sourcePoint" />
            <mxPoint x="1100" y="710" as="targetPoint" />
          </mxGeometry>
        </mxCell>
        <mxCell id="bP8o2C8aqSpeo2GYNB18-132" style="edgeStyle=orthogonalEdgeStyle;rounded=0;orthogonalLoop=1;jettySize=auto;html=1;exitX=0.75;exitY=0;exitDx=0;exitDy=0;endArrow=blockThin;endFill=1;strokeColor=#FF0000;dashed=1;entryX=0.746;entryY=0.983;entryDx=0;entryDy=0;entryPerimeter=0;" parent="1" source="bP8o2C8aqSpeo2GYNB18-126" target="bP8o2C8aqSpeo2GYNB18-124" edge="1">
          <mxGeometry relative="1" as="geometry">
            <mxPoint x="1080" y="700" as="sourcePoint" />
            <mxPoint x="1110" y="700" as="targetPoint" />
            <Array as="points" />
          </mxGeometry>
        </mxCell>
        <mxCell id="bP8o2C8aqSpeo2GYNB18-133" style="edgeStyle=orthogonalEdgeStyle;rounded=0;orthogonalLoop=1;jettySize=auto;html=1;exitX=0;exitY=0.5;exitDx=0;exitDy=0;endArrow=blockThin;endFill=1;strokeColor=#FF0000;entryX=1;entryY=0.5;entryDx=0;entryDy=0;" parent="1" source="bP8o2C8aqSpeo2GYNB18-126" target="bP8o2C8aqSpeo2GYNB18-129" edge="1">
          <mxGeometry relative="1" as="geometry">
            <mxPoint x="1080" y="720" as="sourcePoint" />
            <mxPoint x="1110" y="720" as="targetPoint" />
          </mxGeometry>
        </mxCell>
        <mxCell id="bP8o2C8aqSpeo2GYNB18-244" style="edgeStyle=orthogonalEdgeStyle;rounded=0;orthogonalLoop=1;jettySize=auto;html=1;exitX=1;exitY=0.25;exitDx=0;exitDy=0;entryX=0;entryY=0.25;entryDx=0;entryDy=0;strokeColor=#FF0000;endArrow=blockThin;endFill=1;dashed=1;" parent="1" source="bP8o2C8aqSpeo2GYNB18-134" target="bP8o2C8aqSpeo2GYNB18-117" edge="1">
          <mxGeometry relative="1" as="geometry">
            <Array as="points">
              <mxPoint x="920" y="660" />
              <mxPoint x="920" y="690" />
            </Array>
          </mxGeometry>
        </mxCell>
        <mxCell id="bP8o2C8aqSpeo2GYNB18-245" style="edgeStyle=orthogonalEdgeStyle;rounded=0;orthogonalLoop=1;jettySize=auto;html=1;exitX=1;exitY=0.75;exitDx=0;exitDy=0;entryX=0;entryY=0.75;entryDx=0;entryDy=0;strokeColor=#007FFF;endArrow=blockThin;endFill=1;" parent="1" source="bP8o2C8aqSpeo2GYNB18-134" target="bP8o2C8aqSpeo2GYNB18-117" edge="1">
          <mxGeometry relative="1" as="geometry">
            <Array as="points">
              <mxPoint x="910" y="680" />
              <mxPoint x="910" y="710" />
            </Array>
          </mxGeometry>
        </mxCell>
        <mxCell id="bP8o2C8aqSpeo2GYNB18-134" value="Card Moderation Worker" style="rounded=0;whiteSpace=wrap;html=1;fillColor=#dae8fc;strokeColor=#6c8ebf;fontSize=11;" parent="1" vertex="1">
          <mxGeometry x="730" y="650" width="80" height="40" as="geometry" />
        </mxCell>
        <mxCell id="bP8o2C8aqSpeo2GYNB18-154" value="Card Metrics Service" style="rounded=0;whiteSpace=wrap;html=1;fillColor=#dae8fc;strokeColor=#6c8ebf;fontSize=11;" parent="1" vertex="1">
          <mxGeometry x="850" y="810" width="80" height="40" as="geometry" />
        </mxCell>
        <mxCell id="bP8o2C8aqSpeo2GYNB18-155" value="Card Metrics&lt;div&gt;Clickhouse&lt;/div&gt;" style="shape=cylinder3;whiteSpace=wrap;html=1;boundedLbl=1;backgroundOutline=1;size=15;fillColor=#ffe6cc;strokeColor=#d79b00;fontSize=11;" parent="1" vertex="1">
          <mxGeometry x="735" y="800" width="70" height="60" as="geometry" />
        </mxCell>
        <mxCell id="bP8o2C8aqSpeo2GYNB18-161" value="Recommendation Service" style="rounded=0;whiteSpace=wrap;html=1;fillColor=#dae8fc;strokeColor=#6c8ebf;fontSize=10;" parent="1" vertex="1">
          <mxGeometry x="738" y="940" width="80" height="40" as="geometry" />
        </mxCell>
        <mxCell id="bP8o2C8aqSpeo2GYNB18-162" value="Queue&lt;div&gt;Kafka&lt;/div&gt;" style="strokeWidth=1;html=1;shape=mxgraph.flowchart.direct_data;whiteSpace=wrap;fillColor=#e1d5e7;strokeColor=#9673a6;rotation=0;fontSize=11;" parent="1" vertex="1">
          <mxGeometry x="858" y="940" width="80" height="40" as="geometry" />
        </mxCell>
        <mxCell id="bP8o2C8aqSpeo2GYNB18-169" style="edgeStyle=orthogonalEdgeStyle;rounded=0;orthogonalLoop=1;jettySize=auto;html=1;exitX=0.5;exitY=1;exitDx=0;exitDy=0;entryX=0.5;entryY=0;entryDx=0;entryDy=0;strokeColor=#FF0000;endArrow=blockThin;endFill=1;" parent="1" source="bP8o2C8aqSpeo2GYNB18-163" target="bP8o2C8aqSpeo2GYNB18-164" edge="1">
          <mxGeometry relative="1" as="geometry" />
        </mxCell>
        <mxCell id="bP8o2C8aqSpeo2GYNB18-172" style="edgeStyle=orthogonalEdgeStyle;rounded=0;orthogonalLoop=1;jettySize=auto;html=1;exitX=1;exitY=0.5;exitDx=0;exitDy=0;entryX=0;entryY=0.75;entryDx=0;entryDy=0;strokeColor=#FF0000;endArrow=blockThin;endFill=1;" parent="1" source="bP8o2C8aqSpeo2GYNB18-163" target="bP8o2C8aqSpeo2GYNB18-101" edge="1">
          <mxGeometry relative="1" as="geometry">
            <Array as="points">
              <mxPoint x="960" y="1030" />
              <mxPoint x="960" y="890" />
              <mxPoint x="590" y="890" />
              <mxPoint x="590" y="680" />
            </Array>
          </mxGeometry>
        </mxCell>
        <mxCell id="bP8o2C8aqSpeo2GYNB18-163" value="Worker" style="rounded=0;whiteSpace=wrap;html=1;fillColor=#dae8fc;strokeColor=#6c8ebf;fontSize=10;" parent="1" vertex="1">
          <mxGeometry x="858" y="1010" width="80" height="40" as="geometry" />
        </mxCell>
        <mxCell id="bP8o2C8aqSpeo2GYNB18-164" value="ML Model" style="rounded=0;whiteSpace=wrap;html=1;fillColor=#dae8fc;strokeColor=#6c8ebf;fontSize=10;" parent="1" vertex="1">
          <mxGeometry x="858" y="1080" width="80" height="40" as="geometry" />
        </mxCell>
        <mxCell id="bP8o2C8aqSpeo2GYNB18-165" value="User Vectors&lt;div&gt;LanceDB&lt;/div&gt;" style="shape=cylinder3;whiteSpace=wrap;html=1;boundedLbl=1;backgroundOutline=1;size=15;fillColor=#ffe6cc;strokeColor=#d79b00;fontSize=10;" parent="1" vertex="1">
          <mxGeometry x="743" y="1000" width="70" height="60" as="geometry" />
        </mxCell>
        <mxCell id="bP8o2C8aqSpeo2GYNB18-167" style="rounded=0;orthogonalLoop=1;jettySize=auto;html=1;exitX=0.5;exitY=0;exitDx=0;exitDy=0;entryX=0.5;entryY=1;entryDx=0;entryDy=0;entryPerimeter=0;strokeColor=#007FFF;endArrow=blockThin;endFill=1;" parent="1" source="bP8o2C8aqSpeo2GYNB18-163" target="bP8o2C8aqSpeo2GYNB18-162" edge="1">
          <mxGeometry relative="1" as="geometry" />
        </mxCell>
        <mxCell id="bP8o2C8aqSpeo2GYNB18-168" style="edgeStyle=orthogonalEdgeStyle;rounded=0;orthogonalLoop=1;jettySize=auto;html=1;exitX=1;exitY=0.5;exitDx=0;exitDy=0;entryX=0;entryY=0.5;entryDx=0;entryDy=0;entryPerimeter=0;endArrow=blockThin;endFill=1;strokeColor=#FF0000;dashed=1;" parent="1" source="bP8o2C8aqSpeo2GYNB18-161" target="bP8o2C8aqSpeo2GYNB18-162" edge="1">
          <mxGeometry relative="1" as="geometry" />
        </mxCell>
        <mxCell id="bP8o2C8aqSpeo2GYNB18-170" style="edgeStyle=orthogonalEdgeStyle;rounded=0;orthogonalLoop=1;jettySize=auto;html=1;exitX=0;exitY=0.5;exitDx=0;exitDy=0;entryX=1;entryY=0.5;entryDx=0;entryDy=0;entryPerimeter=0;endArrow=blockThin;endFill=1;dashed=1;strokeColor=#FF0000;" parent="1" source="bP8o2C8aqSpeo2GYNB18-163" target="bP8o2C8aqSpeo2GYNB18-165" edge="1">
          <mxGeometry relative="1" as="geometry" />
        </mxCell>
        <mxCell id="bP8o2C8aqSpeo2GYNB18-171" style="edgeStyle=orthogonalEdgeStyle;rounded=0;orthogonalLoop=1;jettySize=auto;html=1;exitX=0.5;exitY=1;exitDx=0;exitDy=0;entryX=0.5;entryY=0;entryDx=0;entryDy=0;entryPerimeter=0;endArrow=blockThin;endFill=1;strokeColor=#FF0000;" parent="1" source="bP8o2C8aqSpeo2GYNB18-161" target="bP8o2C8aqSpeo2GYNB18-165" edge="1">
          <mxGeometry relative="1" as="geometry" />
        </mxCell>
        <mxCell id="bP8o2C8aqSpeo2GYNB18-190" value="" style="rounded=0;whiteSpace=wrap;html=1;fillColor=#f5f5f5;strokeColor=#ADADAD;fontColor=#333333;" parent="1" vertex="1">
          <mxGeometry x="600" y="130" width="240" height="250" as="geometry" />
        </mxCell>
        <mxCell id="bP8o2C8aqSpeo2GYNB18-191" value="User" style="text;html=1;align=center;verticalAlign=middle;whiteSpace=wrap;rounded=0;" parent="1" vertex="1">
          <mxGeometry x="600" y="130" width="60" height="30" as="geometry" />
        </mxCell>
        <mxCell id="bP8o2C8aqSpeo2GYNB18-200" style="edgeStyle=orthogonalEdgeStyle;rounded=0;orthogonalLoop=1;jettySize=auto;html=1;exitX=0.75;exitY=1;exitDx=0;exitDy=0;entryX=0.75;entryY=0;entryDx=0;entryDy=0;endArrow=blockThin;endFill=1;strokeColor=#FF0000;" parent="1" source="bP8o2C8aqSpeo2GYNB18-192" target="bP8o2C8aqSpeo2GYNB18-196" edge="1">
          <mxGeometry relative="1" as="geometry" />
        </mxCell>
        <mxCell id="bP8o2C8aqSpeo2GYNB18-201" style="edgeStyle=orthogonalEdgeStyle;rounded=0;orthogonalLoop=1;jettySize=auto;html=1;exitX=0.25;exitY=1;exitDx=0;exitDy=0;entryX=0.25;entryY=0;entryDx=0;entryDy=0;endArrow=blockThin;endFill=1;dashed=1;strokeColor=#FF0000;" parent="1" source="bP8o2C8aqSpeo2GYNB18-192" target="bP8o2C8aqSpeo2GYNB18-196" edge="1">
          <mxGeometry relative="1" as="geometry" />
        </mxCell>
        <mxCell id="bP8o2C8aqSpeo2GYNB18-206" style="rounded=0;orthogonalLoop=1;jettySize=auto;html=1;exitX=1;exitY=1;exitDx=0;exitDy=0;entryX=0;entryY=0;entryDx=0;entryDy=0;strokeColor=#FF0000;endArrow=blockThin;endFill=1;" parent="1" source="bP8o2C8aqSpeo2GYNB18-192" target="bP8o2C8aqSpeo2GYNB18-194" edge="1">
          <mxGeometry relative="1" as="geometry" />
        </mxCell>
        <mxCell id="bP8o2C8aqSpeo2GYNB18-192" value="User Service" style="rounded=0;whiteSpace=wrap;html=1;fillColor=#dae8fc;strokeColor=#6c8ebf;fontSize=11;" parent="1" vertex="1">
          <mxGeometry x="620" y="170" width="80" height="40" as="geometry" />
        </mxCell>
        <mxCell id="bP8o2C8aqSpeo2GYNB18-193" value="User&lt;div&gt;MongoDB&lt;/div&gt;" style="shape=cylinder3;whiteSpace=wrap;html=1;boundedLbl=1;backgroundOutline=1;size=15;fillColor=#ffe6cc;strokeColor=#d79b00;fontSize=11;" parent="1" vertex="1">
          <mxGeometry x="740" y="160" width="70" height="60" as="geometry" />
        </mxCell>
        <mxCell id="bP8o2C8aqSpeo2GYNB18-194" value="User Metrics Service" style="rounded=0;whiteSpace=wrap;html=1;fillColor=#dae8fc;strokeColor=#6c8ebf;fontSize=11;" parent="1" vertex="1">
          <mxGeometry x="735" y="240" width="80" height="40" as="geometry" />
        </mxCell>
        <mxCell id="bP8o2C8aqSpeo2GYNB18-195" value="User Metrics&lt;div&gt;Clickhouse&lt;/div&gt;" style="shape=cylinder3;whiteSpace=wrap;html=1;boundedLbl=1;backgroundOutline=1;size=15;fillColor=#ffe6cc;strokeColor=#d79b00;fontSize=11;" parent="1" vertex="1">
          <mxGeometry x="740" y="300" width="70" height="60" as="geometry" />
        </mxCell>
        <mxCell id="bP8o2C8aqSpeo2GYNB18-196" value="User Secrets&lt;div&gt;Service&lt;/div&gt;" style="rounded=0;whiteSpace=wrap;html=1;fillColor=#dae8fc;strokeColor=#6c8ebf;fontSize=11;" parent="1" vertex="1">
          <mxGeometry x="619.5" y="240" width="80" height="40" as="geometry" />
        </mxCell>
        <mxCell id="bP8o2C8aqSpeo2GYNB18-197" value="&lt;div&gt;User Secrets&lt;/div&gt;MongoDB" style="shape=cylinder3;whiteSpace=wrap;html=1;boundedLbl=1;backgroundOutline=1;size=15;fillColor=#ffe6cc;strokeColor=#d79b00;fontSize=11;" parent="1" vertex="1">
          <mxGeometry x="627.5" y="300" width="70" height="60" as="geometry" />
        </mxCell>
        <mxCell id="bP8o2C8aqSpeo2GYNB18-202" style="rounded=0;orthogonalLoop=1;jettySize=auto;html=1;exitX=1;exitY=0.25;exitDx=0;exitDy=0;entryX=0;entryY=0;entryDx=0;entryDy=22.5;entryPerimeter=0;endArrow=blockThin;endFill=1;strokeColor=#FF0000;" parent="1" source="bP8o2C8aqSpeo2GYNB18-192" target="bP8o2C8aqSpeo2GYNB18-193" edge="1">
          <mxGeometry relative="1" as="geometry" />
        </mxCell>
        <mxCell id="bP8o2C8aqSpeo2GYNB18-203" style="rounded=0;orthogonalLoop=1;jettySize=auto;html=1;exitX=1;exitY=0.75;exitDx=0;exitDy=0;entryX=0;entryY=0;entryDx=0;entryDy=37.49999999999999;entryPerimeter=0;endArrow=blockThin;endFill=1;strokeColor=#FF0000;dashed=1;" parent="1" source="bP8o2C8aqSpeo2GYNB18-192" target="bP8o2C8aqSpeo2GYNB18-193" edge="1">
          <mxGeometry relative="1" as="geometry" />
        </mxCell>
        <mxCell id="bP8o2C8aqSpeo2GYNB18-204" style="edgeStyle=orthogonalEdgeStyle;rounded=0;orthogonalLoop=1;jettySize=auto;html=1;exitX=1;exitY=0.5;exitDx=0;exitDy=0;entryX=1;entryY=0.5;entryDx=0;entryDy=0;entryPerimeter=0;strokeColor=#007FFF;endArrow=blockThin;endFill=1;" parent="1" source="bP8o2C8aqSpeo2GYNB18-194" target="bP8o2C8aqSpeo2GYNB18-55" edge="1">
          <mxGeometry relative="1" as="geometry">
            <Array as="points">
              <mxPoint x="850" y="260" />
              <mxPoint x="850" y="380" />
              <mxPoint x="1220" y="380" />
              <mxPoint x="1220" y="500" />
            </Array>
          </mxGeometry>
        </mxCell>
        <mxCell id="bP8o2C8aqSpeo2GYNB18-205" style="edgeStyle=orthogonalEdgeStyle;rounded=0;orthogonalLoop=1;jettySize=auto;html=1;exitX=0.5;exitY=1;exitDx=0;exitDy=0;entryX=0.5;entryY=0;entryDx=0;entryDy=0;endArrow=blockThin;endFill=1;strokeColor=#FF0000;" parent="1" source="bP8o2C8aqSpeo2GYNB18-46" target="bP8o2C8aqSpeo2GYNB18-192" edge="1">
          <mxGeometry relative="1" as="geometry" />
        </mxCell>
        <mxCell id="bP8o2C8aqSpeo2GYNB18-209" style="edgeStyle=orthogonalEdgeStyle;rounded=0;orthogonalLoop=1;jettySize=auto;html=1;exitX=0.25;exitY=1;exitDx=0;exitDy=0;entryX=0.176;entryY=0.058;entryDx=0;entryDy=0;entryPerimeter=0;endArrow=blockThin;endFill=1;dashed=1;strokeColor=#FF0000;" parent="1" source="bP8o2C8aqSpeo2GYNB18-196" target="bP8o2C8aqSpeo2GYNB18-197" edge="1">
          <mxGeometry relative="1" as="geometry" />
        </mxCell>
        <mxCell id="bP8o2C8aqSpeo2GYNB18-207" style="edgeStyle=orthogonalEdgeStyle;rounded=0;orthogonalLoop=1;jettySize=auto;html=1;exitX=0.75;exitY=1;exitDx=0;exitDy=0;entryX=0.755;entryY=0.038;entryDx=0;entryDy=0;entryPerimeter=0;endArrow=blockThin;endFill=1;strokeColor=#FF0000;" parent="1" source="bP8o2C8aqSpeo2GYNB18-196" target="bP8o2C8aqSpeo2GYNB18-197" edge="1">
          <mxGeometry relative="1" as="geometry" />
        </mxCell>
        <mxCell id="bP8o2C8aqSpeo2GYNB18-210" style="edgeStyle=orthogonalEdgeStyle;rounded=0;orthogonalLoop=1;jettySize=auto;html=1;exitX=0.75;exitY=1;exitDx=0;exitDy=0;entryX=0.781;entryY=0.032;entryDx=0;entryDy=0;entryPerimeter=0;endArrow=blockThin;endFill=1;strokeColor=#FF0000;" parent="1" source="bP8o2C8aqSpeo2GYNB18-194" target="bP8o2C8aqSpeo2GYNB18-195" edge="1">
          <mxGeometry relative="1" as="geometry" />
        </mxCell>
        <mxCell id="bP8o2C8aqSpeo2GYNB18-211" style="edgeStyle=orthogonalEdgeStyle;rounded=0;orthogonalLoop=1;jettySize=auto;html=1;exitX=0.25;exitY=1;exitDx=0;exitDy=0;entryX=0.218;entryY=0.037;entryDx=0;entryDy=0;entryPerimeter=0;endArrow=blockThin;endFill=1;strokeColor=#FF0000;dashed=1;" parent="1" source="bP8o2C8aqSpeo2GYNB18-194" target="bP8o2C8aqSpeo2GYNB18-195" edge="1">
          <mxGeometry relative="1" as="geometry" />
        </mxCell>
        <mxCell id="bP8o2C8aqSpeo2GYNB18-214" style="edgeStyle=orthogonalEdgeStyle;rounded=0;orthogonalLoop=1;jettySize=auto;html=1;exitX=0.75;exitY=0;exitDx=0;exitDy=0;entryX=0;entryY=0.5;entryDx=0;entryDy=0;entryPerimeter=0;strokeColor=#FF0000;endArrow=blockThin;endFill=1;dashed=1;" parent="1" source="bP8o2C8aqSpeo2GYNB18-101" target="bP8o2C8aqSpeo2GYNB18-55" edge="1">
          <mxGeometry relative="1" as="geometry">
            <Array as="points">
              <mxPoint x="675" y="630" />
              <mxPoint x="1040" y="630" />
              <mxPoint x="1040" y="500" />
            </Array>
          </mxGeometry>
        </mxCell>
        <mxCell id="bP8o2C8aqSpeo2GYNB18-215" style="edgeStyle=orthogonalEdgeStyle;rounded=0;orthogonalLoop=1;jettySize=auto;html=1;exitX=0.75;exitY=0;exitDx=0;exitDy=0;entryX=0;entryY=0.5;entryDx=0;entryDy=0;entryPerimeter=0;strokeColor=#FF0000;endArrow=blockThin;endFill=1;dashed=1;" parent="1" source="bP8o2C8aqSpeo2GYNB18-192" target="bP8o2C8aqSpeo2GYNB18-55" edge="1">
          <mxGeometry relative="1" as="geometry">
            <Array as="points">
              <mxPoint x="680" y="120" />
              <mxPoint x="860" y="120" />
              <mxPoint x="860" y="370" />
              <mxPoint x="1040" y="370" />
              <mxPoint x="1040" y="500" />
            </Array>
          </mxGeometry>
        </mxCell>
        <mxCell id="bP8o2C8aqSpeo2GYNB18-216" style="edgeStyle=orthogonalEdgeStyle;rounded=0;orthogonalLoop=1;jettySize=auto;html=1;exitX=0.5;exitY=0;exitDx=0;exitDy=0;entryX=0;entryY=0.5;entryDx=0;entryDy=0;entryPerimeter=0;strokeColor=#FF0000;endArrow=blockThin;endFill=1;dashed=1;" parent="1" source="bP8o2C8aqSpeo2GYNB18-61" target="bP8o2C8aqSpeo2GYNB18-55" edge="1">
          <mxGeometry relative="1" as="geometry">
            <Array as="points">
              <mxPoint x="660" y="390" />
              <mxPoint x="950" y="390" />
              <mxPoint x="950" y="500" />
            </Array>
          </mxGeometry>
        </mxCell>
        <mxCell id="bP8o2C8aqSpeo2GYNB18-217" value="" style="rounded=0;whiteSpace=wrap;html=1;fillColor=#f5f5f5;strokeColor=#ADADAD;fontColor=#333333;" parent="1" vertex="1">
          <mxGeometry x="400" width="120" height="260" as="geometry" />
        </mxCell>
        <mxCell id="bP8o2C8aqSpeo2GYNB18-218" value="Chat" style="text;html=1;align=center;verticalAlign=middle;whiteSpace=wrap;rounded=0;" parent="1" vertex="1">
          <mxGeometry x="400" width="60" height="30" as="geometry" />
        </mxCell>
        <mxCell id="bP8o2C8aqSpeo2GYNB18-224" style="edgeStyle=orthogonalEdgeStyle;rounded=0;orthogonalLoop=1;jettySize=auto;html=1;exitX=0.25;exitY=1;exitDx=0;exitDy=0;entryX=0.25;entryY=0;entryDx=0;entryDy=0;endArrow=blockThin;endFill=1;strokeColor=#FF0000;dashed=1;" parent="1" source="bP8o2C8aqSpeo2GYNB18-221" target="bP8o2C8aqSpeo2GYNB18-222" edge="1">
          <mxGeometry relative="1" as="geometry" />
        </mxCell>
        <mxCell id="bP8o2C8aqSpeo2GYNB18-225" style="edgeStyle=orthogonalEdgeStyle;rounded=0;orthogonalLoop=1;jettySize=auto;html=1;exitX=0.75;exitY=1;exitDx=0;exitDy=0;entryX=0.75;entryY=0;entryDx=0;entryDy=0;endArrow=blockThin;endFill=1;strokeColor=#FF0000;" parent="1" source="bP8o2C8aqSpeo2GYNB18-221" target="bP8o2C8aqSpeo2GYNB18-222" edge="1">
          <mxGeometry relative="1" as="geometry" />
        </mxCell>
        <mxCell id="bP8o2C8aqSpeo2GYNB18-221" value="Chat Service" style="rounded=0;whiteSpace=wrap;html=1;fillColor=#dae8fc;strokeColor=#6c8ebf;fontSize=11;" parent="1" vertex="1">
          <mxGeometry x="420" y="40" width="80" height="40" as="geometry" />
        </mxCell>
        <mxCell id="bP8o2C8aqSpeo2GYNB18-222" value="Chat Buffer Service" style="rounded=0;whiteSpace=wrap;html=1;fillColor=#dae8fc;strokeColor=#6c8ebf;fontSize=11;" parent="1" vertex="1">
          <mxGeometry x="420" y="110" width="80" height="40" as="geometry" />
        </mxCell>
        <mxCell id="bP8o2C8aqSpeo2GYNB18-223" value="Chat&lt;div&gt;MongoDB&lt;/div&gt;" style="shape=cylinder3;whiteSpace=wrap;html=1;boundedLbl=1;backgroundOutline=1;size=15;fillColor=#ffe6cc;strokeColor=#d79b00;fontSize=11;" parent="1" vertex="1">
          <mxGeometry x="425" y="180" width="70" height="60" as="geometry" />
        </mxCell>
        <mxCell id="bP8o2C8aqSpeo2GYNB18-227" style="edgeStyle=orthogonalEdgeStyle;rounded=0;orthogonalLoop=1;jettySize=auto;html=1;exitX=0.25;exitY=1;exitDx=0;exitDy=0;entryX=0.224;entryY=0.033;entryDx=0;entryDy=0;entryPerimeter=0;endArrow=blockThin;endFill=1;strokeColor=#FF0000;dashed=1;" parent="1" source="bP8o2C8aqSpeo2GYNB18-222" target="bP8o2C8aqSpeo2GYNB18-223" edge="1">
          <mxGeometry relative="1" as="geometry" />
        </mxCell>
        <mxCell id="bP8o2C8aqSpeo2GYNB18-228" style="edgeStyle=orthogonalEdgeStyle;rounded=0;orthogonalLoop=1;jettySize=auto;html=1;exitX=0.75;exitY=1;exitDx=0;exitDy=0;entryX=0.795;entryY=0.039;entryDx=0;entryDy=0;entryPerimeter=0;endArrow=blockThin;endFill=1;strokeColor=#FF0000;" parent="1" source="bP8o2C8aqSpeo2GYNB18-222" target="bP8o2C8aqSpeo2GYNB18-223" edge="1">
          <mxGeometry relative="1" as="geometry" />
        </mxCell>
        <mxCell id="bP8o2C8aqSpeo2GYNB18-229" value="Category Service" style="rounded=0;whiteSpace=wrap;html=1;fillColor=#dae8fc;strokeColor=#6c8ebf;fontSize=11;" parent="1" vertex="1">
          <mxGeometry x="730" y="730" width="80" height="40" as="geometry" />
        </mxCell>
        <mxCell id="bP8o2C8aqSpeo2GYNB18-230" value="&lt;div&gt;Category&lt;/div&gt;&lt;div&gt;MongoDB&lt;/div&gt;" style="shape=cylinder3;whiteSpace=wrap;html=1;boundedLbl=1;backgroundOutline=1;size=15;fillColor=#ffe6cc;strokeColor=#d79b00;fontSize=10;" parent="1" vertex="1">
          <mxGeometry x="855" y="720" width="70" height="60" as="geometry" />
        </mxCell>
        <mxCell id="bP8o2C8aqSpeo2GYNB18-233" style="edgeStyle=orthogonalEdgeStyle;rounded=0;orthogonalLoop=1;jettySize=auto;html=1;exitX=0.75;exitY=1;exitDx=0;exitDy=0;entryX=0.79;entryY=0.038;entryDx=0;entryDy=0;entryPerimeter=0;strokeColor=#FF0000;endArrow=blockThin;endFill=1;dashed=1;" parent="1" source="bP8o2C8aqSpeo2GYNB18-101" target="bP8o2C8aqSpeo2GYNB18-108" edge="1">
          <mxGeometry relative="1" as="geometry" />
        </mxCell>
        <mxCell id="bP8o2C8aqSpeo2GYNB18-234" style="edgeStyle=orthogonalEdgeStyle;rounded=0;orthogonalLoop=1;jettySize=auto;html=1;exitX=0.25;exitY=1;exitDx=0;exitDy=0;entryX=0.225;entryY=0.03;entryDx=0;entryDy=0;entryPerimeter=0;strokeColor=#FF0000;endArrow=blockThin;endFill=1;" parent="1" source="bP8o2C8aqSpeo2GYNB18-101" target="bP8o2C8aqSpeo2GYNB18-108" edge="1">
          <mxGeometry relative="1" as="geometry" />
        </mxCell>
        <mxCell id="bP8o2C8aqSpeo2GYNB18-237" style="edgeStyle=orthogonalEdgeStyle;rounded=0;orthogonalLoop=1;jettySize=auto;html=1;exitX=0.119;exitY=1.012;exitDx=0;exitDy=0;exitPerimeter=0;entryX=0.145;entryY=0;entryDx=0;entryDy=4.35;entryPerimeter=0;strokeColor=#FF0000;endArrow=blockThin;endFill=1;" parent="1" source="bP8o2C8aqSpeo2GYNB18-101" target="bP8o2C8aqSpeo2GYNB18-106" edge="1">
          <mxGeometry relative="1" as="geometry">
            <Array as="points">
              <mxPoint x="624" y="700" />
              <mxPoint x="610" y="700" />
              <mxPoint x="610" y="790" />
              <mxPoint x="630" y="790" />
            </Array>
          </mxGeometry>
        </mxCell>
        <mxCell id="bP8o2C8aqSpeo2GYNB18-243" style="edgeStyle=orthogonalEdgeStyle;rounded=0;orthogonalLoop=1;jettySize=auto;html=1;exitX=1;exitY=0.5;exitDx=0;exitDy=0;entryX=0;entryY=0.5;entryDx=0;entryDy=0;entryPerimeter=0;strokeColor=#FF0000;endArrow=blockThin;endFill=1;" parent="1" source="bP8o2C8aqSpeo2GYNB18-229" target="bP8o2C8aqSpeo2GYNB18-230" edge="1">
          <mxGeometry relative="1" as="geometry" />
        </mxCell>
        <mxCell id="bP8o2C8aqSpeo2GYNB18-246" style="edgeStyle=orthogonalEdgeStyle;rounded=0;orthogonalLoop=1;jettySize=auto;html=1;exitX=1;exitY=0.5;exitDx=0;exitDy=0;entryX=1;entryY=0.5;entryDx=0;entryDy=0;entryPerimeter=0;endArrow=blockThin;endFill=1;strokeColor=#007FFF;" parent="1" source="bP8o2C8aqSpeo2GYNB18-154" target="bP8o2C8aqSpeo2GYNB18-55" edge="1">
          <mxGeometry relative="1" as="geometry" />
        </mxCell>
        <mxCell id="bP8o2C8aqSpeo2GYNB18-247" style="rounded=0;orthogonalLoop=1;jettySize=auto;html=1;exitX=0;exitY=0.75;exitDx=0;exitDy=0;entryX=1;entryY=0;entryDx=0;entryDy=37.5;entryPerimeter=0;strokeColor=#FF0000;endArrow=blockThin;endFill=1;dashed=1;" parent="1" source="bP8o2C8aqSpeo2GYNB18-154" target="bP8o2C8aqSpeo2GYNB18-155" edge="1">
          <mxGeometry relative="1" as="geometry" />
        </mxCell>
        <mxCell id="bP8o2C8aqSpeo2GYNB18-248" style="rounded=0;orthogonalLoop=1;jettySize=auto;html=1;exitX=0;exitY=0.25;exitDx=0;exitDy=0;entryX=1;entryY=0;entryDx=0;entryDy=22.5;entryPerimeter=0;strokeColor=#FF0000;endArrow=blockThin;endFill=1;" parent="1" source="bP8o2C8aqSpeo2GYNB18-154" target="bP8o2C8aqSpeo2GYNB18-155" edge="1">
          <mxGeometry relative="1" as="geometry" />
        </mxCell>
        <mxCell id="bP8o2C8aqSpeo2GYNB18-251" style="edgeStyle=orthogonalEdgeStyle;rounded=0;orthogonalLoop=1;jettySize=auto;html=1;exitX=0.5;exitY=1;exitDx=0;exitDy=0;entryX=0.855;entryY=0;entryDx=0;entryDy=4.35;entryPerimeter=0;endArrow=blockThin;endFill=1;strokeColor=#FF0000;dashed=1;" parent="1" source="bP8o2C8aqSpeo2GYNB18-134" target="bP8o2C8aqSpeo2GYNB18-106" edge="1">
          <mxGeometry relative="1" as="geometry">
            <Array as="points">
              <mxPoint x="770" y="700" />
              <mxPoint x="710" y="700" />
              <mxPoint x="710" y="790" />
              <mxPoint x="679" y="790" />
            </Array>
          </mxGeometry>
        </mxCell>
        <mxCell id="bP8o2C8aqSpeo2GYNB18-260" style="edgeStyle=orthogonalEdgeStyle;rounded=0;orthogonalLoop=1;jettySize=auto;html=1;exitX=0.75;exitY=1;exitDx=0;exitDy=0;entryX=0;entryY=0.5;entryDx=0;entryDy=0;strokeColor=#33001A;endArrow=blockThin;endFill=1;" parent="1" source="bP8o2C8aqSpeo2GYNB18-4" target="bP8o2C8aqSpeo2GYNB18-77" edge="1">
          <mxGeometry relative="1" as="geometry" />
        </mxCell>
        <mxCell id="bP8o2C8aqSpeo2GYNB18-4" value="Envoy" style="rounded=0;whiteSpace=wrap;html=1;fillColor=#d5e8d4;strokeColor=#82b366;fontSize=11;" parent="1" vertex="1">
          <mxGeometry x="300" y="480" width="80" height="40" as="geometry" />
        </mxCell>
        <mxCell id="bP8o2C8aqSpeo2GYNB18-255" style="edgeStyle=orthogonalEdgeStyle;rounded=0;orthogonalLoop=1;jettySize=auto;html=1;exitX=1;exitY=0.5;exitDx=0;exitDy=0;entryX=0;entryY=0.5;entryDx=0;entryDy=0;endArrow=blockThin;endFill=1;strokeColor=#33001A;" parent="1" source="bP8o2C8aqSpeo2GYNB18-8" target="bP8o2C8aqSpeo2GYNB18-46" edge="1">
          <mxGeometry relative="1" as="geometry" />
        </mxCell>
        <mxCell id="bP8o2C8aqSpeo2GYNB18-256" style="edgeStyle=orthogonalEdgeStyle;rounded=0;orthogonalLoop=1;jettySize=auto;html=1;exitX=1;exitY=0.5;exitDx=0;exitDy=0;entryX=0;entryY=0.5;entryDx=0;entryDy=0;endArrow=blockThin;endFill=1;strokeColor=#33001A;" parent="1" source="bP8o2C8aqSpeo2GYNB18-8" target="bP8o2C8aqSpeo2GYNB18-192" edge="1">
          <mxGeometry relative="1" as="geometry" />
        </mxCell>
        <mxCell id="bP8o2C8aqSpeo2GYNB18-257" style="edgeStyle=orthogonalEdgeStyle;rounded=0;orthogonalLoop=1;jettySize=auto;html=1;exitX=1;exitY=0.5;exitDx=0;exitDy=0;entryX=0;entryY=0.5;entryDx=0;entryDy=0;endArrow=blockThin;endFill=1;strokeColor=#33001A;" parent="1" source="bP8o2C8aqSpeo2GYNB18-8" target="bP8o2C8aqSpeo2GYNB18-61" edge="1">
          <mxGeometry relative="1" as="geometry" />
        </mxCell>
        <mxCell id="bP8o2C8aqSpeo2GYNB18-258" style="edgeStyle=orthogonalEdgeStyle;rounded=0;orthogonalLoop=1;jettySize=auto;html=1;exitX=1;exitY=0.5;exitDx=0;exitDy=0;entryX=0;entryY=0.25;entryDx=0;entryDy=0;endArrow=blockThin;endFill=1;strokeColor=#33001A;" parent="1" source="bP8o2C8aqSpeo2GYNB18-8" target="bP8o2C8aqSpeo2GYNB18-101" edge="1">
          <mxGeometry relative="1" as="geometry">
            <Array as="points">
              <mxPoint x="560" y="500" />
              <mxPoint x="560" y="660" />
            </Array>
          </mxGeometry>
        </mxCell>
        <mxCell id="bP8o2C8aqSpeo2GYNB18-259" style="edgeStyle=orthogonalEdgeStyle;rounded=0;orthogonalLoop=1;jettySize=auto;html=1;exitX=1;exitY=0.5;exitDx=0;exitDy=0;entryX=0;entryY=0.5;entryDx=0;entryDy=0;endArrow=blockThin;endFill=1;strokeColor=#33001A;" parent="1" source="bP8o2C8aqSpeo2GYNB18-8" target="bP8o2C8aqSpeo2GYNB18-161" edge="1">
          <mxGeometry relative="1" as="geometry">
            <Array as="points">
              <mxPoint x="560" y="500" />
              <mxPoint x="560" y="900" />
              <mxPoint x="710" y="900" />
              <mxPoint x="710" y="960" />
            </Array>
          </mxGeometry>
        </mxCell>
        <mxCell id="bP8o2C8aqSpeo2GYNB18-263" style="edgeStyle=orthogonalEdgeStyle;rounded=0;orthogonalLoop=1;jettySize=auto;html=1;exitX=1;exitY=0.5;exitDx=0;exitDy=0;entryX=1;entryY=0.5;entryDx=0;entryDy=0;strokeColor=#33001A;endArrow=blockThin;endFill=1;" parent="1" source="bP8o2C8aqSpeo2GYNB18-8" target="bP8o2C8aqSpeo2GYNB18-221" edge="1">
          <mxGeometry relative="1" as="geometry">
            <Array as="points">
              <mxPoint x="560" y="500" />
              <mxPoint x="560" y="60" />
            </Array>
          </mxGeometry>
        </mxCell>
      </root>
    </mxGraphModel>
  </diagram>
</mxfile>
